<svg width="23" height="24" viewBox="0 0 23 24" fill="none" xmlns="http://www.w3.org/2000/svg">
<g clip-path="url(#clip0_102_4)">
<path d="M11.5 0.375C5.14718 0.375 0 5.57812 0 12C0 18.4219 5.14718 23.625 11.5 23.625C17.8528 23.625 23 18.4219 23 12C23 5.57812 17.8528 0.375 11.5 0.375ZM17.148 8.33906L15.2607 17.3297C15.1216 17.9672 14.746 18.1219 14.222 17.8219L11.347 15.6797L9.96048 17.0297C9.80746 17.1844 9.67762 17.3156 9.38085 17.3156L9.58488 14.3578L14.9129 9.49219C15.1448 9.28594 14.8619 9.16875 14.5558 9.375L7.97117 13.5656L5.13327 12.6703C4.51653 12.4734 4.50262 12.0469 5.2631 11.7469L16.3504 7.425C16.8651 7.2375 17.3149 7.55156 17.148 8.33906Z" fill="black"/>
</g>
<defs>
<clipPath id="clip0_102_4">
<rect width="23" height="24" fill="white"/>
</clipPath>
</defs>
</svg>
